<svg xmlns="http://www.w3.org/2000/svg" viewBox="0 0 72.38 44.29"><defs><style>.cls-1{fill:#baa360;}</style></defs><g id="Layer_2" data-name="Layer 2"><g id="Layer_1-2" data-name="Layer 1"><path class="cls-1" d="M47.33.3,37.09,7.77a1.55,1.55,0,0,1-1.81,0L25.05.3a1.52,1.52,0,0,0-1.81,0L.63,16.81A1.53,1.53,0,0,0,0,18.05V42.76a1.53,1.53,0,0,0,1.53,1.53H12.75A1.26,1.26,0,0,0,14,43V39.62a1.26,1.26,0,0,0-1.26-1.26H7.47a1.54,1.54,0,0,1-1.54-1.54V21.06a1.55,1.55,0,0,1,.63-1.24L23.24,7.64a1.55,1.55,0,0,1,1.81,0l6.11,4.47-6.44,4.7a1.53,1.53,0,0,0-.63,1.24V42.76a1.53,1.53,0,0,0,1.53,1.53H46.75a1.53,1.53,0,0,0,1.54-1.53V18.05a1.55,1.55,0,0,0-.63-1.24l-6.44-4.7,6.11-4.47a1.55,1.55,0,0,1,1.81,0L65.82,19.82a1.54,1.54,0,0,1,.62,1.24V36.82a1.53,1.53,0,0,1-1.53,1.54H59a1.25,1.25,0,0,0-1.26,1.26V43A1.25,1.25,0,0,0,59,44.29H70.84a1.53,1.53,0,0,0,1.54-1.53V18.05a1.55,1.55,0,0,0-.63-1.24L49.14.3A1.52,1.52,0,0,0,47.33.3Zm-5,20V38.36H30V20.28l6.17-4.5Z"/></g></g></svg>